<?xml version="1.0" encoding="UTF-8" standalone="no"?>
<!-- Created with Inkscape (http://www.inkscape.org/) -->

<svg
   xmlns:dc="http://purl.org/dc/elements/1.1/"
   xmlns:cc="http://creativecommons.org/ns#"
   xmlns:rdf="http://www.w3.org/1999/02/22-rdf-syntax-ns#"
   xmlns:svg="http://www.w3.org/2000/svg"
   xmlns="http://www.w3.org/2000/svg"
   xmlns:sodipodi="http://sodipodi.sourceforge.net/DTD/sodipodi-0.dtd"
   xmlns:inkscape="http://www.inkscape.org/namespaces/inkscape"
   width="25.663092mm"
   height="29.125298mm"
   viewBox="0 0 25.663092 29.125298"
   version="1.1"
   id="svg8"
   sodipodi:docname="logo.svg"
   inkscape:version="0.92.4 5da689c313, 2019-01-14"
   inkscape:export-filename="/home/dstaesse/ouroboros_full_300dpi.png"
   inkscape:export-xdpi="299.61554"
   inkscape:export-ydpi="299.61554">
  <defs
     id="defs2" />
  <sodipodi:namedview
     id="base"
     pagecolor="#ffffff"
     bordercolor="#666666"
     borderopacity="1.0"
     inkscape:pageopacity="0.0"
     inkscape:pageshadow="2"
     inkscape:zoom="6.9585841"
     inkscape:cx="48.497181"
     inkscape:cy="55.039932"
     inkscape:document-units="mm"
     inkscape:current-layer="layer1"
     showgrid="false"
     inkscape:window-width="1680"
     inkscape:window-height="985"
     inkscape:window-x="0"
     inkscape:window-y="0"
     inkscape:window-maximized="1" />
  <metadata
     id="metadata5">
    <rdf:RDF>
      <cc:Work
         rdf:about="">
        <dc:format>image/svg+xml</dc:format>
        <dc:type
           rdf:resource="http://purl.org/dc/dcmitype/StillImage" />
        <dc:title />
      </cc:Work>
    </rdf:RDF>
  </metadata>
  <g
     inkscape:label="Layer 1"
     inkscape:groupmode="layer"
     id="layer1"
     transform="translate(-70.23979,-20.729593)">
    <text
       xml:space="preserve"
       style="font-style:normal;font-weight:normal;font-size:2.48420238px;line-height:125%;font-family:sans-serif;text-align:start;letter-spacing:0px;word-spacing:0px;writing-mode:lr-tb;text-anchor:start;fill:#4d4d4d;fill-opacity:1;stroke:none;stroke-width:0.26458332px;stroke-linecap:butt;stroke-linejoin:miter;stroke-opacity:1"
       x="70.100296"
       y="49.819714"
       id="text1539"
       inkscape:export-xdpi="1200"
       inkscape:export-ydpi="1200"><tspan
         sodipodi:role="line"
         id="tspan1537"
         x="70.100296"
         y="49.819714"
         style="fill:#4d4d4d;stroke-width:0.26458332px">O  u  r  o  b  o  r  o  s</tspan></text>
    <path
       style="fill:#ffffff;stroke-width:0.26458332;fill-opacity:1"
       d="m 83.647646,20.734843 a 12.288606,13.098539 45.000266 0 0 -4.629244,0.995129 12.288606,13.098539 45.000266 0 0 -7.806212,16.639894 12.288606,13.098539 45.000266 0 0 16.174912,6.759635 12.288606,13.098539 45.000266 0 0 7.806702,-16.639892 12.288606,13.098539 45.000266 0 0 -11.546158,-7.754766 z m -1.360159,0.787383 a 10.508711,11.27894 0 0 1 9.458883,7.230987 10.508711,11.27894 0 0 1 -1.457172,10.871467 8.7836713,8.0795109 0 0 0 0.398836,-2.379296 8.7836713,8.0795109 0 0 0 -8.783704,-8.079126 8.7836713,8.0795109 0 0 0 -8.783705,8.079126 8.7836713,8.0795109 0 0 0 0.34788,2.225938 10.508711,11.27894 0 0 1 -1.3435,-2.634083 10.508711,11.27894 0 0 1 6.044768,-14.572216 10.508711,11.27894 0 0 1 4.117714,-0.742797 z m 0.280753,7.755255 a 7.18664,7.27156 0 0 1 6.864979,5.144691 4.266478,5.2163615 20.239336 0 0 -1.148491,-1.075975 4.266478,5.2163615 20.239336 0 0 -6.071716,2.423885 4.266478,5.2163615 20.239336 0 0 1.302341,6.811082 4.266478,5.2163615 20.239336 0 0 2.294043,0.457633 7.18664,7.27156 0 0 1 -3.241156,0.781994 7.18664,7.27156 0 0 1 -7.1864,-7.271655 7.18664,7.27156 0 0 1 7.1864,-7.271655 z m 3.428325,3.885958 a 3.824666,4.2848542 13.038846 0 1 1.717347,0.48409 3.824666,4.2848542 13.038846 0 1 1.367018,5.752256 3.824666,4.2848542 13.038846 0 1 -1.245996,1.498821 3.824666,4.2848542 13.038846 0 1 -4.023148,0.30476 3.824666,4.2848542 13.038846 0 1 -0.670771,-0.519857 3.6473795,2.7808182 5.6839878 0 1 0.670771,-3.549838 3.6473795,2.7808182 5.6839878 0 1 0.863818,-0.394427 4.8856226,5.4371844 48.872449 0 1 0.0054,-0.0073 3.2171185,4.2814821 86.068324 0 0 -1.15829,0.527209 3.2171185,4.2814821 86.068324 0 0 -1.428264,1.643361 3.824666,4.2848542 13.038846 0 1 0.349838,-3.450864 3.824666,4.2848542 13.038846 0 1 3.552288,-2.288162 z"
       id="path3717"
       inkscape:export-xdpi="1200"
       inkscape:export-ydpi="1200"
       inkscape:connector-curvature="0" />
  </g>
</svg>
